<svg width="100" height="100" viewBox="0 0 100 100" fill="none" xmlns="http://www.w3.org/2000/svg">
  <!-- Letter B main body -->
  <path d="M22 12 L22 88 L58 88 C76 88 88 76 88 62 C88 52 82 44 72 41 C80 37 85 29 85 20 C85 14 80 12 72 12 Z M38 26 L56 26 C63 26 68 29 68 36 C68 43 63 47 56 47 L38 47 Z M38 61 L58 61 C66 61 71 65 71 72 C71 79 66 82 58 82 L38 82 Z" fill="black"/>
  <!-- Organic bubble/tail at bottom left -->
  <path d="M22 70 C22 70 10 82 12 92 C14 100 26 106 38 102 C28 100 20 90 22 70 Z" fill="black"/>
</svg>
